<svg width="130" height="120" viewBox="0 0 130 120" fill="none" xmlns="http://www.w3.org/2000/svg">
<g opacity="0.05">
<path d="M64.4987 95.8508C54.8067 94.4472 39.8322 89.9907 40.3441 74.3223C40.8574 58.6354 54.3784 41.141 64.4987 27.9792V-2.61914C25.2156 -1.85117 -1.9957 30.2376 0.114742 64.7786C2.27767 100.201 29.0466 124.894 64.4987 126.878V95.8508Z" fill="#0078D2"/>
<path d="M89.0769 74.5576C88.5585 58.688 74.5382 40.9453 64.4929 27.856V95.8924C74.0019 94.6366 89.5958 90.4242 89.0769 74.5576Z" fill="#0078D2"/>
<path d="M68.4708 -3V1.31769C100.339 3.21313 125.687 29.701 125.687 62C125.687 94.299 100.339 120.787 68.4708 122.682V127C102.718 125.103 130 96.6768 130 62C130 27.3242 102.718 -1.10056 68.4708 -3Z" fill="#0078D2"/>
</g>
</svg>
