<svg width="222" height="40" viewBox="0 0 222 40" fill="none" xmlns="http://www.w3.org/2000/svg">
<g id="1956044384288">
<path id="Vector" d="M19.8065 30.4156C16.8302 29.9838 12.2318 28.6125 12.389 23.7915C12.5466 18.9647 16.6987 13.5818 19.8065 9.53205V0.117188C7.74329 0.353485 -0.612846 10.227 0.0352353 20.855C0.699435 31.7541 8.91973 39.3519 19.8065 39.9623V30.4156Z" fill="white"/>
<path id="Vector_2" d="M27.3541 23.8649C27.195 18.9819 22.8896 13.5226 19.8048 9.49512V30.4294C22.7249 30.043 27.5135 28.7469 27.3541 23.8649Z" fill="white"/>
<path id="Vector_3" d="M21.0262 0V1.32852C30.8124 1.91173 38.5964 10.0618 38.5964 20C38.5964 29.9382 30.8124 38.0883 21.0262 38.6715V40C31.5431 39.4162 39.9208 30.6698 39.9208 20C39.9208 9.33052 31.5431 0.584444 21.0262 0Z" fill="white"/>
<path id="Vector_4" d="M54.7173 17.8827L55.8437 13.6762C55.8437 13.6762 56.2482 11.6299 54.1571 11.6299H50.6367C49.037 11.6299 47.9872 13.6238 47.9872 13.6238L44.6113 26.2347C44.6113 26.2347 44.2162 28.6574 46.0583 28.6574H49.6579C51.4803 28.6574 52.4564 26.3293 52.4564 26.3293L53.8045 21.2935H50.5651L49.3265 25.9196H47.9349L51.0279 14.3665H52.4193L51.4783 17.8827H54.7173ZM70.5143 11.6299H73.8594L73.3201 16.2326L75.3046 11.6299H78.6506L74.3722 19.7041L74.2521 28.6574H70.9054L71.4967 23.1931L69.1239 28.6574H65.7831L70.4693 19.7041L70.5143 11.6299ZM88.0189 28.6574H91.258L93.2744 21.1253H94.6671L92.6504 28.6574H95.89L100.448 11.6299H97.2091L95.3997 18.3882H94.0073L95.8165 11.6299H92.5772L88.0189 28.6574ZM103.676 11.6299H109.349L108.616 14.3665H106.183L105.106 18.3882H107.54L106.807 21.1253H104.373L103.09 25.9196H105.523L104.79 28.6574H99.1172L103.676 11.6299ZM122.376 20.0316L122.552 19.3767C122.552 19.3767 123.785 14.3081 121.731 14.3081H119.277L119.994 11.6299H116.754L116.037 14.3081H113.504C111.518 14.3081 109.948 19.7508 109.948 19.7508L109.786 20.3587C109.786 20.3587 108.396 26.0465 110.203 26.0465H112.895L112.196 28.6574H115.435L116.134 26.0465H118.707C120.625 26.0465 122.376 20.0316 122.376 20.0316ZM113.628 23.3092H112.236L113.909 17.061H115.3L113.628 23.3092ZM118.259 23.3092H116.868L118.54 17.061H119.932L118.259 23.3092ZM137.355 11.6299H143.029L142.296 14.3665H139.862L138.785 18.3882H141.22L140.487 21.1253H138.052L136.769 25.9196H139.203L138.47 28.6574H132.797L137.355 11.6299ZM141.244 28.6574H144.483L148.309 14.3665H150.743L151.475 11.6299H145.803L141.244 28.6574ZM163.604 16.6247L164.396 13.6658C164.396 13.6658 165.072 11.6299 167.136 11.6299H170.636C172.583 11.6299 172.265 13.6707 172.265 13.6707L171.084 18.084C170.704 19.5033 169.082 19.0499 168.89 19.7685C168.697 20.4875 170.623 19.8067 170.27 21.1234L168.864 26.3756C168.864 26.3756 168.097 28.6574 166.078 28.6574H162.578C160.599 28.6574 161.007 26.3275 161.007 26.3275L161.936 22.8574H165.175L164.355 25.9196H165.747L167.03 21.1253H164.663L165.396 18.3882H167.763L168.839 14.3665H167.448L166.844 16.6247H163.604ZM188.806 17.9082L189.754 14.3674H193.716L194.449 11.6299H187.247L182.689 28.6574H188.384C190.199 28.6574 191.964 23.4136 191.964 23.4136L192.209 22.4996C192.209 22.4996 193.258 17.9082 191.3 17.9082H188.806ZM188.073 20.6461H189.465L188.053 25.9196H186.661L188.073 20.6461ZM207.435 11.6299H210.674L206.116 28.6574H202.876L207.435 11.6299ZM202.805 23.5583L203.027 22.7285C203.027 22.7285 204.091 17.9163 202.138 17.9163H199.684L201.367 11.6299H198.128L193.569 28.6568H199.246C201.204 28.6568 202.805 23.5583 202.805 23.5583ZM198.934 25.9196H197.542L198.952 20.6534H200.344L198.934 25.9196ZM214.14 11.6299H222L221.267 14.3665H218.768L214.942 28.6574H211.716L215.542 14.3665H213.407L214.14 11.6299ZM182.307 17.8827L183.433 13.6762C183.433 13.6762 183.837 11.6299 181.746 11.6299H178.225C176.626 11.6299 175.576 13.6238 175.576 13.6238L172.2 26.2347C172.2 26.2347 171.805 28.6574 173.647 28.6574H177.246C179.069 28.6574 180.046 26.3293 180.046 26.3293L181.394 21.2935H178.154L176.915 25.9196H175.523L178.616 14.3665H180.008L179.066 17.8827H182.307ZM154.046 28.6574L154.79 25.8775H153.398L152.653 28.6574H149.414L153.413 13.7197C153.413 13.7197 153.972 11.6299 156.167 11.6299H161.843L157.285 28.6574H154.046ZM157.871 14.3674H156.48L154.131 23.1396H155.523L157.871 14.3674ZM62.9709 28.6574L67.5295 11.6299H61.8541C59.6581 11.6299 59.0993 13.7197 59.0993 13.7197L55.1006 28.6574H58.34L59.0841 25.8775H60.4759L59.7316 28.6574H62.9709ZM61.2087 23.1396H59.8171L62.1655 14.3674H63.557L61.2087 23.1396ZM81.4839 28.6574L82.2281 25.8775H80.8365L80.0922 28.6574H76.853L80.8518 13.7197C80.8518 13.7197 81.4104 11.6299 83.6062 11.6299H89.2816L84.7233 28.6574H81.4839ZM85.3095 14.3674H83.9177L81.5696 23.1396H82.9611L85.3095 14.3674ZM126.049 14.5115H128.183L124.358 28.8017H127.584L131.41 14.5115H133.908L134.641 11.7737H126.782L126.049 14.5115Z" fill="white"/>
</g>
</svg>
