<svg width="223" height="41" viewBox="0 0 223 41" fill="none" xmlns="http://www.w3.org/2000/svg">
<g id="1956044384288">
<path id="Vector" d="M19.8957 30.9156C16.9061 30.4838 12.2869 29.1125 12.4448 24.2915C12.6032 19.4647 16.7739 14.0818 19.8957 10.0321V0.617188C7.77817 0.853485 -0.615607 10.727 0.035394 21.355C0.702585 32.2541 8.9599 39.8519 19.8957 40.4623V30.9156Z" fill="#0078D2"/>
<path id="Vector_2" d="M27.4774 24.3649C27.3175 19.4819 22.9927 14.0226 19.894 9.99512V30.9294C22.8272 30.543 27.6374 29.2469 27.4774 24.3649Z" fill="#0078D2"/>
<path id="Vector_3" d="M21.1211 0.5V1.82852C30.9513 2.41173 38.7704 10.5618 38.7704 20.5C38.7704 30.4382 30.9513 38.5883 21.1211 39.1715V40.5C31.6853 39.9162 40.1008 31.1698 40.1008 20.5C40.1008 9.83052 31.6853 1.08444 21.1211 0.5Z" fill="#0078D2"/>
<path id="Vector_4" d="M54.9637 18.3827L56.0952 14.1762C56.0952 14.1762 56.5015 12.1299 54.4009 12.1299H50.8647C49.2578 12.1299 48.2033 14.1238 48.2033 14.1238L44.8121 26.7347C44.8121 26.7347 44.4152 29.1574 46.2657 29.1574H49.8815C51.7121 29.1574 52.6926 26.8293 52.6926 26.8293L54.0467 21.7935H50.7928L49.5486 26.4196H48.1507L51.2577 14.8665H52.6553L51.7101 18.3827H54.9637ZM70.8318 12.1299H74.192L73.6503 16.7326L75.6437 12.1299H79.0048L74.7071 20.2041L74.5864 29.1574H71.2247L71.8187 23.6931L69.4351 29.1574H66.0793L70.7866 20.2041L70.8318 12.1299ZM88.4153 29.1574H91.6689L93.6944 21.6253H95.0934L93.0676 29.1574H96.3219L100.901 12.1299H97.6468L95.8294 18.8882H94.4307L96.248 12.1299H92.9941L88.4153 29.1574ZM104.143 12.1299H109.841L109.105 14.8665H106.661L105.579 18.8882H108.024L107.288 21.6253H104.843L103.554 26.4196H105.999L105.262 29.1574H99.5636L104.143 12.1299ZM122.927 20.5316L123.104 19.8767C123.104 19.8767 124.343 14.8081 122.279 14.8081H119.814L120.534 12.1299H117.28L116.56 14.8081H114.015C112.021 14.8081 110.443 20.2508 110.443 20.2508L110.28 20.8587C110.28 20.8587 108.884 26.5465 110.699 26.5465H113.403L112.701 29.1574H115.955L116.657 26.5465H119.242C121.169 26.5465 122.927 20.5316 122.927 20.5316ZM114.139 23.8092H112.742L114.422 17.561H115.819L114.139 23.8092ZM118.792 23.8092H117.394L119.074 17.561H120.472L118.792 23.8092ZM137.974 12.1299H143.673L142.937 14.8665H140.492L139.41 18.8882H141.856L141.12 21.6253H138.674L137.385 26.4196H139.83L139.094 29.1574H133.395L137.974 12.1299ZM141.88 29.1574H145.134L148.977 14.8665H151.422L152.158 12.1299H146.459L141.88 29.1574ZM164.341 17.1247L165.137 14.1658C165.137 14.1658 165.815 12.1299 167.889 12.1299H171.405C173.36 12.1299 173.041 14.1707 173.041 14.1707L171.854 18.584C171.473 20.0033 169.844 19.5499 169.651 20.2685C169.457 20.9875 171.391 20.3067 171.037 21.6234L169.625 26.8756C169.625 26.8756 168.854 29.1574 166.826 29.1574H163.31C161.322 29.1574 161.732 26.8275 161.732 26.8275L162.665 23.3574H165.919L165.095 26.4196H166.493L167.783 21.6253H165.405L166.141 18.8882H168.519L169.6 14.8665H168.202L167.595 17.1247H164.341ZM189.656 18.4082L190.609 14.8674H194.588L195.325 12.1299H188.091L183.512 29.1574H189.233C191.056 29.1574 192.829 23.9136 192.829 23.9136L193.074 22.9996C193.074 22.9996 194.128 18.4082 192.161 18.4082H189.656ZM188.92 21.1461H190.318L188.9 26.4196H187.502L188.92 21.1461ZM208.369 12.1299H211.623L207.044 29.1574H203.79L208.369 12.1299ZM203.719 24.0583L203.942 23.2285C203.942 23.2285 205.01 18.4163 203.049 18.4163H200.583L202.274 12.1299H199.02L194.441 29.1568H200.143C202.11 29.1568 203.719 24.0583 203.719 24.0583ZM199.83 26.4196H198.432L199.848 21.1534H201.246L199.83 26.4196ZM215.104 12.1299H223L222.264 14.8665H219.753L215.91 29.1574H212.67L216.513 14.8665H214.368L215.104 12.1299ZM183.128 18.3827L184.259 14.1762C184.259 14.1762 184.665 12.1299 182.564 12.1299H179.028C177.421 12.1299 176.366 14.1238 176.366 14.1238L172.975 26.7347C172.975 26.7347 172.578 29.1574 174.429 29.1574H178.045C179.876 29.1574 180.857 26.8293 180.857 26.8293L182.211 21.7935H178.956L177.712 26.4196H176.314L179.421 14.8665H180.818L179.873 18.3827H183.128ZM154.739 29.1574L155.487 26.3775H154.088L153.341 29.1574H150.087L154.104 14.2197C154.104 14.2197 154.666 12.1299 156.871 12.1299H162.572L157.993 29.1574H154.739ZM158.582 14.8674H157.184L154.825 23.6396H156.223L158.582 14.8674ZM63.2545 29.1574L67.8335 12.1299H62.1326C59.9267 12.1299 59.3654 14.2197 59.3654 14.2197L55.3487 29.1574H58.6027L59.3502 26.3775H60.7482L60.0006 29.1574H63.2545ZM61.4844 23.6396H60.0864L62.4454 14.8674H63.8432L61.4844 23.6396ZM81.8509 29.1574L82.5984 26.3775H81.2005L80.4528 29.1574H77.199L81.2159 14.2197C81.2159 14.2197 81.777 12.1299 83.9827 12.1299H89.6837L85.1048 29.1574H81.8509ZM85.6937 14.8674H84.2956L81.9369 23.6396H83.3347L85.6937 14.8674ZM126.617 15.0115H128.761L124.918 29.3017H128.159L132.002 15.0115H134.511L135.247 12.2737H127.353L126.617 15.0115Z" fill="#0078D2"/>
</g>
</svg>
