<svg width="37" height="40" viewBox="0 0 37 40" fill="none" xmlns="http://www.w3.org/2000/svg">
<g id="Group 48718">
<path id="Vector 1 (Stroke)" fill-rule="evenodd" clip-rule="evenodd" d="M7.09648 1.70306C8.04159 0.773615 9.36712 0 10.6758 0H24.466L36.456 11.912V34.4968C36.456 35.5224 35.9867 36.8601 35.1178 37.9422C34.2197 39.0606 32.8151 40 30.9159 40H10.6389C9.22444 40 7.90215 39.1189 7.00508 38.1962C6.53595 37.7137 6.12786 37.1655 5.83155 36.6054C5.54281 36.0596 5.32031 35.4268 5.32031 34.7922V5.42936C5.32031 3.98763 6.14351 2.64024 7.09648 1.70306ZM8.65033 3.28309C7.93202 3.9895 7.53638 4.80277 7.53638 5.42936V34.7922C7.53638 34.9333 7.5955 35.2007 7.79038 35.5691C7.97768 35.9231 8.25518 36.3029 8.59399 36.6514C9.3128 37.3908 10.0958 37.7839 10.6389 37.7839H30.9159C32.0083 37.7839 32.8198 37.2645 33.3899 36.5546C33.9891 35.8084 34.24 34.9485 34.24 34.4968V13.4811H25.0802C24.3791 13.4811 23.8326 13.1304 23.4902 12.7546C23.1686 12.4016 22.9011 11.8885 22.9011 11.3389V2.21607H10.6758C10.1747 2.21607 9.37651 2.56895 8.65033 3.28309ZM25.1172 3.77075L32.6606 11.265H25.131C25.1301 11.2641 25.1292 11.2631 25.1283 11.2621C25.1244 11.2578 25.1206 11.2532 25.1172 11.2486V3.77075Z" fill="#E5252A"/>
<path id="Rectangle 207" d="M0 18.0238C0 17.6159 0.330722 17.2852 0.738689 17.2852H27.3315C27.7395 17.2852 28.0702 17.6159 28.0702 18.0238V28.07C28.0702 28.478 27.7395 28.8087 27.3315 28.8087H0.738689C0.330723 28.8087 0 28.478 0 28.07V18.0238Z" fill="#B71D21"/>
<g id="PDF">
<path d="M8.4557 23.9463H6.73522V23.0969H8.4557C8.78032 23.0969 9.04182 23.032 9.2402 22.9021C9.44218 22.7723 9.58826 22.592 9.67843 22.3611C9.77221 22.1303 9.8191 21.867 9.8191 21.5712C9.8191 21.3007 9.77221 21.0464 9.67843 20.8084C9.58826 20.5703 9.44218 20.3791 9.2402 20.2349C9.04182 20.087 8.78032 20.013 8.4557 20.013H6.94081V27.0356H5.94531V19.1582H8.4557C8.96427 19.1582 9.39349 19.261 9.74336 19.4666C10.0932 19.6722 10.3583 19.9571 10.5387 20.3214C10.7226 20.6821 10.8146 21.0951 10.8146 21.5604C10.8146 22.0653 10.7226 22.4964 10.5387 22.8535C10.3583 23.2105 10.0932 23.4829 9.74336 23.6704C9.39349 23.8544 8.96427 23.9463 8.4557 23.9463Z" fill="white"/>
<path d="M13.8768 27.0356H12.5351L12.5459 26.1862H13.8768C14.3493 26.1862 14.7335 26.096 15.0292 25.9157C15.325 25.7317 15.5432 25.4612 15.6839 25.1041C15.8246 24.7435 15.8949 24.298 15.8949 23.7678V22.4206C15.8949 22.0022 15.8552 21.6415 15.7759 21.3386C15.6965 21.0356 15.5775 20.7867 15.4188 20.5919C15.2601 20.3972 15.0599 20.2529 14.8182 20.1591C14.5766 20.0617 14.2934 20.013 13.9688 20.013H12.508V19.1582H13.9688C14.4125 19.1582 14.8128 19.2285 15.1699 19.3692C15.527 19.5063 15.8336 19.7137 16.0897 19.9914C16.3457 20.2655 16.5405 20.6064 16.674 21.0139C16.811 21.4215 16.8796 21.894 16.8796 22.4314V23.7678C16.8796 24.3052 16.811 24.7777 16.674 25.1853C16.5405 25.5929 16.3439 25.9337 16.0842 26.2078C15.8246 26.482 15.509 26.6894 15.1374 26.83C14.7695 26.9671 14.3493 27.0356 13.8768 27.0356ZM13.0869 19.1582V27.0356H12.0914V19.1582H13.0869Z" fill="white"/>
<path d="M19.417 19.1582V27.0356H18.4215V19.1582H19.417ZM22.0735 22.702V23.5568H19.2276V22.702H22.0735ZM22.5225 19.1582V20.013H19.2276V19.1582H22.5225Z" fill="white"/>
</g>
</g>
</svg>
